<?xml version="1.0" standalone="no"?>
<!DOCTYPE svg PUBLIC "-//W3C//DTD SVG 20010904//EN"
 "http://www.w3.org/TR/2001/REC-SVG-20010904/DTD/svg10.dtd">
<svg version="1.0" xmlns="http://www.w3.org/2000/svg"
 width="176.000000pt" height="176.000000pt" viewBox="0 0 176.000000 176.000000"
 preserveAspectRatio="xMidYMid meet">
<metadata>
Created by potrace 1.11, written by Peter Selinger 2001-2013
</metadata>
<g transform="translate(0.000000,176.000000) scale(0.100000,-0.100000)"
fill="#000000" stroke="none">
<path d="M745 1748 c-11 -6 -26 -18 -33 -25 -12 -12 -52 -25 -114 -38 -18 -3
-41 -24 -68 -60 -22 -30 -55 -61 -74 -70 -35 -17 -50 -43 -61 -107 -3 -21 -18
-52 -33 -70 -27 -32 -28 -37 -21 -153 1 -16 -1 -53 -5 -81 -7 -45 -6 -53 19
-82 15 -18 23 -32 18 -32 -4 0 -2 -4 6 -9 7 -5 14 -24 15 -42 2 -37 34 -99 51
-99 5 0 3 -5 -5 -10 -11 -8 -7 -9 14 -4 21 5 27 4 22 -5 -4 -6 -1 -11 8 -11
18 0 69 -76 61 -90 -3 -6 1 -7 9 -4 9 3 16 2 16 -4 0 -5 13 -12 28 -15 19 -4
28 -12 29 -27 1 -13 -2 -18 -10 -13 -9 5 -9 3 0 -8 8 -10 12 -100 12 -299 1
-156 3 -285 4 -287 2 -1 19 9 39 22 20 13 41 26 48 27 7 2 24 13 38 25 28 26
102 70 123 75 8 2 13 -2 12 -7 -1 -6 8 -12 20 -12 12 -1 23 -7 25 -13 2 -5 10
-10 17 -10 7 0 16 -7 19 -16 4 -9 9 -14 13 -11 6 6 92 -49 104 -66 3 -5 10 -9
15 -10 5 -1 8 -6 6 -12 -2 -7 0 -7 7 0 6 6 11 128 13 325 l3 315 28 0 c16 -1
27 5 27 13 0 7 4 11 9 8 5 -3 11 4 14 15 3 12 10 18 16 14 7 -3 8 0 5 9 -3 9
-1 16 6 16 6 0 9 4 6 8 -7 12 34 44 49 38 10 -3 12 0 8 11 -4 10 -2 14 3 10 6
-3 16 3 24 13 8 10 16 17 20 15 3 -2 7 14 9 36 2 49 12 74 45 118 28 38 32 70
15 120 -7 19 -8 36 -2 44 5 6 8 37 8 68 0 45 -5 61 -27 87 -15 18 -30 49 -33
70 -8 51 -34 100 -57 107 -26 9 -78 54 -78 69 0 24 -49 58 -96 67 -26 5 -67
23 -93 40 -39 26 -52 30 -86 24 -51 -9 -99 -9 -150 -1 -25 4 -48 2 -60 -6z"/>
<path d="M574 722 c4 -3 14 -7 22 -8 9 -1 13 0 10 4 -4 3 -14 7 -22 8 -9 1
-13 0 -10 -4z"/>
<path d="M1147 719 c7 -7 15 -10 18 -7 3 3 -2 9 -12 12 -14 6 -15 5 -6 -5z"/>
<path d="M1149 643 c-13 -16 -12 -17 4 -4 9 7 17 15 17 17 0 8 -8 3 -21 -13z"/>
<path d="M1146 418 c3 -5 10 -6 15 -3 13 9 11 12 -6 12 -8 0 -12 -4 -9 -9z"/>
<path d="M596 382 c-3 -5 1 -9 9 -9 8 0 12 4 9 9 -3 4 -7 8 -9 8 -2 0 -6 -4
-9 -8z"/>
<path d="M976 158 c3 -5 10 -6 15 -3 13 9 11 12 -6 12 -8 0 -12 -4 -9 -9z"/>
<path d="M1016 142 c-3 -5 1 -9 9 -9 8 0 12 4 9 9 -3 4 -7 8 -9 8 -2 0 -6 -4
-9 -8z"/>
</g>
</svg>
